<svg width="120" height="32" viewBox="0 0 120 32" fill="none" xmlns="http://www.w3.org/2000/svg">
<path d="M0 8C0 3.58172 3.58172 0 8 0H104C112.837 0 120 7.16344 120 16C120 24.8366 112.837 32 104 32H8C3.58172 32 0 28.4183 0 24V8Z" fill="black" fill-opacity="0.01"/>
<path d="M8 0.5H104C112.56 0.5 119.5 7.43959 119.5 16C119.5 24.5604 112.56 31.5 104 31.5H8C3.85786 31.5 0.5 28.1421 0.5 24V8C0.5 3.85786 3.85786 0.5 8 0.5Z" stroke="url(#paint0_linear_7784_1192)" stroke-opacity="0.2"/>
<path d="M43.1697 20V11.2727H46.3658C46.9851 11.2727 47.4979 11.375 47.9041 11.5795C48.3104 11.7812 48.6143 12.0554 48.8161 12.402C49.0178 12.7457 49.1186 13.1335 49.1186 13.5653C49.1186 13.929 49.0518 14.2358 48.9183 14.4858C48.7848 14.733 48.6058 14.9318 48.3814 15.0824C48.1598 15.2301 47.9155 15.3381 47.6484 15.4062V15.4915C47.9382 15.5057 48.2209 15.5994 48.4964 15.7727C48.7749 15.9432 49.005 16.1861 49.1868 16.5014C49.3686 16.8168 49.4595 17.2003 49.4595 17.652C49.4595 18.098 49.3544 18.4986 49.1442 18.8537C48.9368 19.206 48.6158 19.4858 48.1811 19.6932C47.7464 19.8977 47.1911 20 46.5149 20H43.1697ZM44.4865 18.8707H46.3871C47.0178 18.8707 47.4695 18.7486 47.7422 18.5043C48.0149 18.2599 48.1513 17.9545 48.1513 17.5881C48.1513 17.3125 48.0817 17.0597 47.9425 16.8295C47.8033 16.5994 47.6044 16.4162 47.3459 16.2798C47.0902 16.1435 46.7862 16.0753 46.4339 16.0753H44.4865V18.8707ZM44.4865 15.0483H46.2507C46.5462 15.0483 46.8118 14.9915 47.0476 14.8778C47.2862 14.7642 47.4751 14.6051 47.6143 14.4006C47.7564 14.1932 47.8274 13.9489 47.8274 13.6676C47.8274 13.3068 47.701 13.0043 47.4482 12.7599C47.1953 12.5156 46.8075 12.3935 46.2848 12.3935H44.4865V15.0483ZM53.6761 20.1321C53.0625 20.1321 52.527 19.9915 52.0696 19.7102C51.6122 19.429 51.2571 19.0355 51.0043 18.5298C50.7514 18.0241 50.625 17.4332 50.625 16.7571C50.625 16.0781 50.7514 15.4844 51.0043 14.9759C51.2571 14.4673 51.6122 14.0724 52.0696 13.7912C52.527 13.5099 53.0625 13.3693 53.6761 13.3693C54.2898 13.3693 54.8253 13.5099 55.2827 13.7912C55.7401 14.0724 56.0952 14.4673 56.348 14.9759C56.6009 15.4844 56.7273 16.0781 56.7273 16.7571C56.7273 17.4332 56.6009 18.0241 56.348 18.5298C56.0952 19.0355 55.7401 19.429 55.2827 19.7102C54.8253 19.9915 54.2898 20.1321 53.6761 20.1321ZM53.6804 19.0625C54.0781 19.0625 54.4077 18.9574 54.669 18.7472C54.9304 18.5369 55.1236 18.2571 55.2486 17.9077C55.3764 17.5582 55.4403 17.1733 55.4403 16.7528C55.4403 16.3352 55.3764 15.9517 55.2486 15.6023C55.1236 15.25 54.9304 14.9673 54.669 14.7543C54.4077 14.5412 54.0781 14.4347 53.6804 14.4347C53.2798 14.4347 52.9474 14.5412 52.6832 14.7543C52.4219 14.9673 52.2273 15.25 52.0994 15.6023C51.9744 15.9517 51.9119 16.3352 51.9119 16.7528C51.9119 17.1733 51.9744 17.5582 52.0994 17.9077C52.2273 18.2571 52.4219 18.5369 52.6832 18.7472C52.9474 18.9574 53.2798 19.0625 53.6804 19.0625ZM59.3981 18.2145L62.283 13.4545H63.6552V20H62.4066V15.2358L59.5344 20H58.1495V13.4545H59.3981V18.2145ZM61.7376 11.2386H62.7859C62.7859 11.7187 62.6154 12.1094 62.2745 12.4105C61.9364 12.7088 61.479 12.858 60.9023 12.858C60.3285 12.858 59.8725 12.7088 59.5344 12.4105C59.1964 12.1094 59.0273 11.7187 59.0273 11.2386H60.0714C60.0714 11.4517 60.1339 11.6406 60.2589 11.8054C60.3839 11.9673 60.5984 12.0483 60.9023 12.0483C61.2006 12.0483 61.4137 11.9673 61.5415 11.8054C61.6722 11.6435 61.7376 11.4545 61.7376 11.2386ZM64.5565 14.554V13.4545H70.0792V14.554H67.9442V20H66.6999V14.554H64.5565ZM72.6754 18.2145L75.5604 13.4545H76.9325V20H75.6839V15.2358L72.8118 20H71.4268V13.4545H72.6754V18.2145Z" fill="white"/>
<defs>
<linearGradient id="paint0_linear_7784_1192" x1="23" y1="-8" x2="108" y2="46.5" gradientUnits="userSpaceOnUse">
<stop stop-color="white"/>
<stop offset="1" stop-color="white" stop-opacity="0.5"/>
</linearGradient>
</defs>
</svg>
