<svg width="102" height="25" viewBox="0 0 102 25" fill="none" xmlns="http://www.w3.org/2000/svg">
<path d="M97.7229 10.4521C100.09 10.4523 102 12.3289 102 14.625V21.749H100.44V17.708H100.346C100.33 17.7256 99.3766 18.7839 97.7493 18.7969H97.7229C95.3693 18.7967 93.4585 16.9209 93.4583 14.625C93.4583 12.3289 95.3692 10.4524 97.7229 10.4521ZM39.6965 14.625C39.6962 16.9209 37.7863 18.7968 35.4192 18.7969C33.0656 18.7967 31.1558 16.9208 31.1555 14.625C31.1555 12.3289 33.0654 10.4524 35.4192 10.4521C37.0749 10.4522 38.0284 11.5253 38.0422 11.541H38.136V7.5H39.6965V14.625ZM45.3635 10.4521C47.7309 10.4521 49.6409 12.3288 49.6409 14.625V18.6396H48.0803V17.708H47.9866C47.9708 17.7256 47.018 18.7837 45.3909 18.7969H45.3635C43.01 18.7966 41.1001 16.9209 41.0999 14.625C41.0999 12.3289 43.0098 10.4524 45.3635 10.4521ZM60.1936 10.4521C62.561 10.4521 64.4709 12.3288 64.4709 14.625V18.6396H62.9114V17.708H62.8167C62.7991 17.7276 61.8466 18.7838 60.2209 18.7969H60.1936C57.8401 18.7965 55.9302 16.9208 55.9299 14.625C55.9299 12.329 57.84 10.4525 60.1936 10.4521ZM69.593 10.4521C73.0497 10.4521 73.427 12.2888 73.427 13.0762H71.8528C71.8528 12.8005 71.8524 11.9873 69.593 11.9873C67.3206 11.9874 67.3196 12.8005 67.3196 13.0762C67.3196 13.7448 68.0589 13.85 68.3821 13.8633L70.9651 13.9287C72.5926 14.0599 73.5344 14.9001 73.5344 16.1729C73.5344 16.9601 73.1573 18.7969 69.7004 18.7969H69.4856C66.0291 18.7967 65.6653 16.9601 65.6653 16.1729H67.2258C67.2258 16.4484 67.2263 17.2616 69.4856 17.2617H69.7004C71.9601 17.2617 71.9602 16.4484 71.9602 16.1729C71.9602 15.9629 71.9603 15.5431 70.8713 15.4512L68.3284 15.3857C67.0373 15.333 65.7591 14.5979 65.759 13.0762C65.7591 12.2889 66.1232 10.4523 69.593 10.4521ZM77.179 10.7803C78.228 10.3473 79.4521 10.3474 80.5012 10.7803C81.0121 10.9901 81.4697 11.2916 81.8596 11.6719C82.2497 12.0524 82.5594 12.4995 82.7747 12.998C83.0032 13.5097 83.1106 14.0609 83.1106 14.625V15.3857H76.2512C76.2781 15.4775 76.3047 15.5698 76.345 15.6484C76.4794 15.9631 76.6811 16.2522 76.9231 16.4883C77.1786 16.7375 77.4618 16.9206 77.7844 17.0518C78.4568 17.3272 79.2233 17.3271 79.8958 17.0518C80.2184 16.9206 80.5016 16.7374 80.7571 16.4883L81.8596 17.5771C81.4697 17.9574 81.0121 18.2589 80.5012 18.4688C79.9767 18.6786 79.4115 18.7969 78.8333 18.7969C78.2551 18.7968 77.7034 18.6786 77.179 18.4688C76.6681 18.2589 76.2105 17.9574 75.8206 17.5771C75.4172 17.1836 75.1073 16.7373 74.9055 16.252C74.6769 15.7273 74.5696 15.189 74.5696 14.625C74.5696 14.061 74.6771 13.5096 74.9055 12.998C75.1207 12.4995 75.4171 12.0523 75.8206 11.6719C76.2105 11.2916 76.6681 10.9901 77.179 10.7803ZM86.6233 10.7803C87.6723 10.3474 88.8965 10.3475 89.9456 10.7803C90.4566 10.9902 90.9149 11.2915 91.3049 11.6719C91.695 12.0524 92.0038 12.4995 92.219 12.998C92.4476 13.5097 92.5559 14.0609 92.5559 14.625V15.3857H85.6956C85.7224 15.4775 85.749 15.5698 85.7893 15.6484C85.9238 15.9632 86.1264 16.2522 86.3684 16.4883C86.6237 16.7372 86.9063 16.9206 87.2288 17.0518C87.9012 17.3273 88.6686 17.3272 89.3411 17.0518C89.6635 16.9206 89.9461 16.7372 90.2014 16.4883L91.3049 17.5771C90.9149 17.9576 90.4566 18.2589 89.9456 18.4688C89.4211 18.6785 88.8558 18.7969 88.2776 18.7969C87.6995 18.7968 87.1476 18.6786 86.6233 18.4688C86.1125 18.2588 85.6548 17.9575 85.2649 17.5771C84.8616 17.1837 84.5526 16.7372 84.3508 16.252C84.1223 15.7273 84.014 15.189 84.0139 14.625C84.0139 14.0609 84.1223 13.5097 84.3508 12.998C84.566 12.4995 84.8615 12.0523 85.2649 11.6719C85.6548 11.2916 86.1125 10.9902 86.6233 10.7803ZM52.7854 10.7539H54.9377V12.2764H52.7854V15.1621C52.7854 16.3166 53.7543 17.2488 54.9377 17.249V18.7842C52.8799 18.784 51.2249 17.1564 51.2249 15.1621V7.64453H52.7854V10.7539ZM35.4192 11.9873C33.9263 11.9875 32.7151 13.1687 32.7151 14.625C32.7154 16.0811 33.9265 17.2615 35.4192 17.2617C36.912 17.2617 38.1357 16.0812 38.136 14.625C38.136 13.1686 36.9122 11.9874 35.4192 11.9873ZM45.3635 11.9873C43.8707 11.9875 42.6594 13.1687 42.6594 14.625C42.6597 16.0811 43.8708 17.2615 45.3635 17.2617C46.8564 17.2617 48.0801 16.0812 48.0803 14.625C48.0803 13.1686 46.8566 11.9873 45.3635 11.9873ZM60.1936 11.9873C58.7008 11.9877 57.4905 13.1688 57.4905 14.625C57.4907 16.081 58.701 17.2614 60.1936 17.2617C61.6865 17.2617 62.9111 16.0812 62.9114 14.625C62.9114 13.1686 61.6867 11.9873 60.1936 11.9873ZM97.7229 11.9873C96.23 11.9875 95.0188 13.1687 95.0188 14.625C95.019 16.0811 96.2302 17.2615 97.7229 17.2617C99.2157 17.2616 100.439 16.0812 100.44 14.625C100.44 13.1686 99.2158 11.9874 97.7229 11.9873ZM79.8958 12.1973C79.2234 11.922 78.4568 11.9218 77.7844 12.1973C77.4617 12.3285 77.1786 12.5125 76.9231 12.7617C76.6812 12.9978 76.4794 13.2869 76.345 13.6016C76.3048 13.6801 76.278 13.7718 76.2512 13.8633H81.4299C81.4031 13.7716 81.3754 13.6802 81.3352 13.6016C81.2007 13.2868 80.9991 12.9978 80.7571 12.7617C80.5016 12.5125 80.2185 12.3284 79.8958 12.1973ZM89.3411 12.1973C88.6686 11.9219 87.9012 11.9218 87.2288 12.1973C86.9062 12.3285 86.6238 12.5126 86.3684 12.7617C86.1264 12.9979 85.9238 13.2868 85.7893 13.6016C85.7492 13.6801 85.7224 13.7718 85.6956 13.8633H90.8743C90.8474 13.7716 90.8198 13.6802 90.7795 13.6016C90.645 13.2867 90.4435 12.9979 90.2014 12.7617C89.946 12.5126 89.6637 12.3284 89.3411 12.1973Z" fill="white" fill-opacity="0.9"/>
<ellipse cx="12.6532" cy="12.6299" rx="11.7704" ry="11.4818" fill="url(#paint0_linear_7599_3015)"/>
<path d="M12.6533 1.64817C18.8894 1.64823 23.9237 6.57637 23.9238 12.6296C23.9238 18.683 18.8895 23.612 12.6533 23.612C6.41707 23.612 1.38281 18.683 1.38281 12.6296C1.38298 6.57634 6.41718 1.64817 12.6533 1.64817Z" stroke="white" stroke-opacity="0.1"/>
<path d="M20.904 9.86718C20.4475 11.6653 20.4475 13.5946 20.904 15.3927C22.1753 20.3994 18.1774 24.1117 12.6532 24.1117C6.1526 24.1117 0.882812 18.9711 0.882812 12.6299C0.882812 6.28873 6.1526 1.14817 12.6532 1.14817C18.1774 1.14817 22.1753 4.86047 20.904 9.86718Z" fill="url(#paint1_linear_7599_3015)"/>
<path d="M12.6533 1.64817C15.3088 1.6482 17.5512 2.54049 18.9707 3.98118C20.3776 5.40908 21.0119 7.40832 20.4189 9.74388C19.9419 11.6226 19.942 13.6366 20.4189 15.5154C21.012 17.851 20.3777 19.8511 18.9707 21.279C17.5512 22.7196 15.3087 23.612 12.6533 23.612C6.41707 23.612 1.38281 18.683 1.38281 12.6296C1.38298 6.57634 6.41718 1.64817 12.6533 1.64817Z" stroke="white" stroke-opacity="0.1"/>
<path d="M17.7732 4.13176C19.112 9.53378 19.112 15.7261 17.7732 21.1281C17.3138 22.9818 15.7008 24.1117 12.6532 24.1117C6.1526 24.1117 0.882812 18.9711 0.882812 12.6299C0.882812 6.28873 6.1526 1.14817 12.6532 1.14817C15.7008 1.14817 17.3138 2.27803 17.7732 4.13176Z" fill="url(#paint2_linear_7599_3015)"/>
<path d="M12.6533 1.64817C14.1214 1.64819 15.1858 1.92155 15.9229 2.37181C16.6463 2.81379 17.0883 3.4459 17.2881 4.25169C18.6073 9.57461 18.6073 15.6846 17.2881 21.0075C17.0883 21.8135 16.6464 22.4464 15.9229 22.8884C15.1859 23.3386 14.1213 23.612 12.6533 23.612C6.41707 23.612 1.38281 18.683 1.38281 12.6296C1.38298 6.57634 6.41718 1.64817 12.6533 1.64817Z" stroke="white" stroke-opacity="0.1"/>
<path d="M24.4236 12.6299C24.4236 18.9711 19.1538 24.1117 12.6532 24.1117C6.1526 24.1117 0.882812 18.9711 0.882812 12.6299C0.882812 6.28873 6.1526 1.14817 12.6532 1.14817C19.1538 1.14817 24.4236 6.28873 24.4236 12.6299Z" fill="url(#paint3_linear_7599_3015)"/>
<path d="M24.1294 12.6299C24.1294 6.44726 18.9913 1.43522 12.6532 1.43522C6.31512 1.43522 1.17707 6.44726 1.17707 12.6299C1.17707 18.8126 6.31512 23.8246 12.6532 23.8246V24.1117C6.1526 24.1117 0.882812 18.9711 0.882812 12.6299C0.882812 6.28873 6.1526 1.14817 12.6532 1.14817C19.1538 1.14817 24.4236 6.28873 24.4236 12.6299C24.4236 18.9711 19.1538 24.1117 12.6532 24.1117V23.8246C18.9913 23.8246 24.1294 18.8126 24.1294 12.6299Z" fill="white" fill-opacity="0.1"/>
<path d="M20.904 9.86718C20.4475 11.6653 20.4475 13.5946 20.904 15.3927C22.1753 20.3994 18.1774 24.1117 12.6532 24.1117C6.1526 24.1117 0.882812 18.9711 0.882812 12.6299C0.882812 6.28873 6.1526 1.14817 12.6532 1.14817C18.1774 1.14817 22.1753 4.86047 20.904 9.86718Z" fill="url(#paint4_linear_7599_3015)"/>
<path d="M12.6533 1.64817C15.3088 1.6482 17.5512 2.54049 18.9707 3.98118C20.3776 5.40908 21.0119 7.40832 20.4189 9.74388C19.9419 11.6226 19.942 13.6366 20.4189 15.5154C21.012 17.851 20.3777 19.8511 18.9707 21.279C17.5512 22.7196 15.3087 23.612 12.6533 23.612C6.41707 23.612 1.38281 18.683 1.38281 12.6296C1.38298 6.57634 6.41718 1.64817 12.6533 1.64817Z" stroke="white" stroke-opacity="0.1"/>
<path d="M20.1301 11.8856C19.8918 12.3522 19.8918 12.9077 20.1301 13.3743C23.1916 19.3686 18.8975 24.1117 12.6532 24.1117C6.1526 24.1117 0.882812 18.9711 0.882812 12.6299C0.882812 6.28873 6.1526 1.14817 12.6532 1.14817C18.8975 1.14817 23.1916 5.89129 20.1301 11.8856Z" fill="url(#paint5_linear_7599_3015)"/>
<path d="M0.882812 12.6299C0.882812 6.28873 6.15259 1.14817 12.6532 1.14817C18.8974 1.14817 23.1916 5.8914 20.1301 11.8857L20.0881 11.974C19.8926 12.4212 19.9067 12.9368 20.1301 13.3742C23.1916 19.3685 18.8974 24.1117 12.6532 24.1117V23.8246C15.703 23.8246 18.2405 22.6671 19.645 20.8199C21.041 18.984 21.3554 16.4173 19.8666 13.5023C19.5871 12.9551 19.5871 12.3047 19.8666 11.7576C21.3554 8.84254 21.041 6.27587 19.645 4.43993C18.2405 2.59279 15.703 1.43522 12.6532 1.43522C6.31511 1.43522 1.17707 6.44726 1.17707 12.6299C1.17707 18.8126 6.31511 23.8246 12.6532 23.8246V24.1117C6.15259 24.1117 0.882812 18.9711 0.882812 12.6299Z" fill="white" fill-opacity="0.1"/>
<path d="M16.5172 10.3906C15.8392 11.8077 15.8392 13.4522 16.5172 14.8693C19.0381 20.1385 18.3683 24.1117 12.6532 24.1117C6.1526 24.1117 0.882812 18.9711 0.882812 12.6299C0.882812 6.28873 6.1526 1.14817 12.6532 1.14817C18.3683 1.14817 19.0381 5.12138 16.5172 10.3906Z" fill="url(#paint6_linear_7599_3015)"/>
<path d="M0.882812 12.6299C0.882812 6.28873 6.15262 1.14817 12.6533 1.14817C18.3683 1.14817 19.0381 5.12131 16.5172 10.3905C15.8392 11.8076 15.8392 13.4523 16.5172 14.8694C19.0381 20.1385 18.3683 24.1117 12.6533 24.1117V23.8246C14.05 23.8246 15.1088 23.5816 15.8781 23.1586C16.6407 22.7392 17.1342 22.1348 17.3948 21.3752C17.924 19.8324 17.5033 17.6094 16.2505 14.9908C15.5357 13.4967 15.5357 11.7631 16.2505 10.2691C17.5033 7.65047 17.924 5.42742 17.3948 3.88462C17.1342 3.12503 16.6407 2.52064 15.8781 2.10125C15.1088 1.67827 14.05 1.43522 12.6533 1.43522C6.31514 1.43522 1.17707 6.44726 1.17707 12.6299C1.17707 18.8126 6.31514 23.8246 12.6533 23.8246V24.1117C6.15262 24.1117 0.882812 18.9711 0.882812 12.6299Z" fill="white" fill-opacity="0.1"/>
<defs>
<linearGradient id="paint0_linear_7599_3015" x1="23.5408" y1="9.61597" x2="14.5712" y2="22.314" gradientUnits="userSpaceOnUse">
<stop stop-color="#1B2085"/>
<stop offset="1" stop-color="#1B1682"/>
</linearGradient>
<linearGradient id="paint1_linear_7599_3015" x1="19.5683" y1="4.30566" x2="9.95721" y2="24.3009" gradientUnits="userSpaceOnUse">
<stop stop-color="#5F20F2"/>
<stop offset="1" stop-color="#441B7B"/>
</linearGradient>
<linearGradient id="paint2_linear_7599_3015" x1="15.9047" y1="1.14817" x2="4.3115" y2="24.3453" gradientUnits="userSpaceOnUse">
<stop stop-color="#746EE6"/>
<stop offset="1" stop-color="#9642C3"/>
</linearGradient>
<linearGradient id="paint3_linear_7599_3015" x1="23.5408" y1="9.61597" x2="14.5712" y2="22.314" gradientUnits="userSpaceOnUse">
<stop stop-color="#1B2085"/>
<stop offset="1" stop-color="#1B1682"/>
</linearGradient>
<linearGradient id="paint4_linear_7599_3015" x1="19.5683" y1="4.30566" x2="9.95721" y2="24.3009" gradientUnits="userSpaceOnUse">
<stop stop-color="#5F20F2"/>
<stop offset="1" stop-color="#441B7B"/>
</linearGradient>
<linearGradient id="paint5_linear_7599_3015" x1="19.5683" y1="4.30566" x2="9.95721" y2="24.3009" gradientUnits="userSpaceOnUse">
<stop stop-color="#5F20F2"/>
<stop offset="1" stop-color="#441B7B"/>
</linearGradient>
<linearGradient id="paint6_linear_7599_3015" x1="15.9047" y1="1.14817" x2="4.3115" y2="24.3453" gradientUnits="userSpaceOnUse">
<stop stop-color="#746EE6"/>
<stop offset="1" stop-color="#9642C3"/>
</linearGradient>
</defs>
</svg>
