<svg width="22" height="22" viewBox="0 0 22 22" fill="none" xmlns="http://www.w3.org/2000/svg">
<ellipse cx="10.6535" cy="10.5632" rx="10.6535" ry="10.5632" fill="url(#paint0_linear_7608_351)"/>
<path d="M10.6533 0.5C16.265 0.5 20.8066 5.00972 20.8066 10.5635C20.8065 16.1171 16.2649 20.626 10.6533 20.626C5.04185 20.6259 0.500145 16.117 0.5 10.5635C0.5 5.00978 5.04176 0.500099 10.6533 0.5Z" stroke="white" stroke-opacity="0.1"/>
<path d="M18.1672 7.82729C17.7701 9.61302 17.7701 11.5134 18.1672 13.2991C19.1697 17.8068 15.583 21.1264 10.6535 21.1264C4.76974 21.1264 0 16.3971 0 10.5632C0 4.72931 4.76974 0 10.6535 0C15.583 0 19.1697 3.31965 18.1672 7.82729Z" fill="url(#paint1_linear_7608_351)"/>
<path d="M10.6533 0.5C13.0103 0.5 15.003 1.29362 16.2803 2.57617C17.5465 3.84773 18.1432 5.63019 17.6787 7.71875C17.2658 9.57576 17.2658 11.5502 17.6787 13.4072C18.1432 15.4958 17.5465 17.2792 16.2803 18.5508C15.003 19.8332 13.0102 20.626 10.6533 20.626C5.04185 20.6259 0.500145 16.117 0.5 10.5635C0.5 5.00978 5.04176 0.500098 10.6533 0.5Z" stroke="white" stroke-opacity="0.1"/>
<path d="M15.1016 2.18169C17.2559 7.22922 17.2559 13.8972 15.1016 18.9447C14.5176 20.313 13.0936 21.1264 10.6535 21.1264C4.76974 21.1264 0 16.3971 0 10.5632C0 4.72931 4.76974 0 10.6535 0C13.0936 0 14.5176 0.813412 15.1016 2.18169Z" fill="url(#paint2_linear_7608_351)"/>
<path d="M10.6533 0.5C12.99 0.5 14.1683 1.26908 14.6416 2.37793C16.7424 7.29998 16.7423 13.8259 14.6416 18.748C14.1683 19.8569 12.9901 20.626 10.6533 20.626C5.04185 20.6259 0.500145 16.117 0.5 10.5635C0.5 5.00978 5.04176 0.500098 10.6533 0.5Z" stroke="white" stroke-opacity="0.1"/>
<path d="M21.307 10.5632C21.307 16.3971 16.5373 21.1264 10.6535 21.1264C4.76974 21.1264 0 16.3971 0 10.5632C0 4.72931 4.76974 0 10.6535 0C16.5373 0 21.307 4.72931 21.307 10.5632Z" fill="url(#paint3_linear_7608_351)"/>
<path d="M21.0407 10.5632C21.0407 4.87516 16.3902 0.26408 10.6535 0.26408C4.91683 0.26408 0.266338 4.87516 0.266338 10.5632C0.266338 16.2513 4.91683 20.8623 10.6535 20.8623V21.1264C4.76974 21.1264 0 16.3971 0 10.5632C0 4.72931 4.76974 0 10.6535 0C16.5373 0 21.307 4.72931 21.307 10.5632C21.307 16.3971 16.5373 21.1264 10.6535 21.1264V20.8623C16.3902 20.8623 21.0407 16.2513 21.0407 10.5632Z" fill="white" fill-opacity="0.1"/>
<path d="M18.1672 7.82729C17.7701 9.61302 17.7701 11.5134 18.1672 13.2991C19.1697 17.8068 15.583 21.1264 10.6535 21.1264C4.76974 21.1264 0 16.3971 0 10.5632C0 4.72931 4.76974 0 10.6535 0C15.583 0 19.1697 3.31965 18.1672 7.82729Z" fill="url(#paint4_linear_7608_351)"/>
<path d="M10.6533 0.5C13.0103 0.5 15.003 1.29362 16.2803 2.57617C17.5465 3.84773 18.1432 5.63019 17.6787 7.71875C17.2658 9.57576 17.2658 11.5502 17.6787 13.4072C18.1432 15.4958 17.5465 17.2792 16.2803 18.5508C15.003 19.8332 13.0102 20.626 10.6533 20.626C5.04185 20.6259 0.500145 16.117 0.5 10.5635C0.5 5.00978 5.04176 0.500098 10.6533 0.5Z" stroke="white" stroke-opacity="0.1"/>
<path d="M17.4209 9.87841C17.2052 10.3077 17.2052 10.8188 17.4209 11.248C20.1919 16.7628 16.3052 21.1264 10.6535 21.1264C4.76974 21.1264 0 16.3971 0 10.5632C0 4.72931 4.76974 0 10.6535 0C16.3052 0 20.1919 4.36367 17.4209 9.87841Z" fill="url(#paint5_linear_7608_351)"/>
<path d="M0 10.5632C0 4.72931 4.76973 0 10.6535 0C16.3052 0 20.1919 4.36377 17.4209 9.87851L17.3829 9.95975C17.206 10.3711 17.2187 10.8455 17.4209 11.2479C20.1919 16.7627 16.3052 21.1264 10.6535 21.1264V20.8623C13.4139 20.8623 15.7106 19.7974 16.9818 18.098C18.2454 16.4089 18.5299 14.0476 17.1824 11.3658C16.9295 10.8624 16.9295 10.264 17.1824 9.76065C18.5299 7.07882 18.2454 4.71748 16.9818 3.02841C15.7106 1.32905 13.4139 0.26408 10.6535 0.26408C4.91682 0.26408 0.266337 4.87516 0.266337 10.5632C0.266337 16.2513 4.91682 20.8623 10.6535 20.8623V21.1264C4.76973 21.1264 0 16.3971 0 10.5632Z" fill="white" fill-opacity="0.1"/>
<path d="M14.1508 8.50302C13.5371 9.80673 13.5371 11.3197 14.1508 12.6234C16.4325 17.4711 15.8263 21.1264 10.6535 21.1264C4.76974 21.1264 0 16.3971 0 10.5632C0 4.72931 4.76974 0 10.6535 0C15.8263 0 16.4325 3.65535 14.1508 8.50302Z" fill="url(#paint6_linear_7608_351)"/>
<path d="M0 10.5632C0 4.72931 4.76975 0 10.6535 0C15.8263 0 16.4325 3.65529 14.1508 8.50292C13.5371 9.80664 13.5371 11.3198 14.1508 12.6235C16.4325 17.4711 15.8263 21.1264 10.6535 21.1264V20.8623C11.9177 20.8623 12.8761 20.6387 13.5723 20.2496C14.2626 19.8638 14.7093 19.3077 14.9451 18.6089C15.4241 17.1895 15.0434 15.1443 13.9094 12.7352C13.2625 11.3607 13.2625 9.76576 13.9094 8.39125C15.0434 5.98211 15.4241 3.93691 14.9451 2.51753C14.7093 1.81871 14.2626 1.26267 13.5723 0.876829C12.8761 0.487689 11.9177 0.26408 10.6535 0.26408C4.91685 0.26408 0.266339 4.87516 0.266339 10.5632C0.266339 16.2513 4.91685 20.8623 10.6535 20.8623V21.1264C4.76975 21.1264 0 16.3971 0 10.5632Z" fill="white" fill-opacity="0.1"/>
<defs>
<linearGradient id="paint0_linear_7608_351" x1="20.508" y1="7.79037" x2="12.2118" y2="19.345" gradientUnits="userSpaceOnUse">
<stop stop-color="#1B2085"/>
<stop offset="1" stop-color="#1B1682"/>
</linearGradient>
<linearGradient id="paint1_linear_7608_351" x1="16.9124" y1="2.90488" x2="7.98035" y2="21.1867" gradientUnits="userSpaceOnUse">
<stop stop-color="#5F20F2"/>
<stop offset="1" stop-color="#441B7B"/>
</linearGradient>
<linearGradient id="paint2_linear_7608_351" x1="13.5964" y1="-1.32039e-07" x2="2.82664" y2="21.2008" gradientUnits="userSpaceOnUse">
<stop stop-color="#746EE6"/>
<stop offset="1" stop-color="#9642C3"/>
</linearGradient>
<linearGradient id="paint3_linear_7608_351" x1="20.508" y1="7.79037" x2="12.2118" y2="19.345" gradientUnits="userSpaceOnUse">
<stop stop-color="#1B2085"/>
<stop offset="1" stop-color="#1B1682"/>
</linearGradient>
<linearGradient id="paint4_linear_7608_351" x1="16.9124" y1="2.90488" x2="7.98035" y2="21.1867" gradientUnits="userSpaceOnUse">
<stop stop-color="#5F20F2"/>
<stop offset="1" stop-color="#441B7B"/>
</linearGradient>
<linearGradient id="paint5_linear_7608_351" x1="16.9124" y1="2.90488" x2="7.98035" y2="21.1867" gradientUnits="userSpaceOnUse">
<stop stop-color="#5F20F2"/>
<stop offset="1" stop-color="#441B7B"/>
</linearGradient>
<linearGradient id="paint6_linear_7608_351" x1="13.5964" y1="-1.32039e-07" x2="2.82664" y2="21.2008" gradientUnits="userSpaceOnUse">
<stop stop-color="#746EE6"/>
<stop offset="1" stop-color="#9642C3"/>
</linearGradient>
</defs>
</svg>
